<svg  viewBox="0 0 20 20" fill="none" xmlns="http://www.w3.org/2000/svg">
<path d="M5.83341 5.83333H13.9584C15.714 5.83333 16.5917 5.83333 17.2223 6.25466C17.4953 6.43706 17.7297 6.67143 17.9121 6.94441C18.3334 7.57497 18.3334 8.45275 18.3334 10.2083C18.3334 13.1343 18.3334 14.5973 17.6312 15.6483C17.3272 16.1032 16.9366 16.4938 16.4817 16.7978C15.4307 17.5 13.9677 17.5 11.0417 17.5H10.0001C6.07171 17.5 4.10752 17.5 2.88714 16.2796C1.66675 15.0592 1.66675 13.095 1.66675 9.16667V6.62023C1.66675 5.1065 1.66675 4.34963 1.98368 3.78172C2.2096 3.37689 2.54364 3.04285 2.94846 2.81693C3.51638 2.5 4.27325 2.5 5.78697 2.5C6.75677 2.5 7.24166 2.5 7.66613 2.65917C8.63525 3.0226 9.03492 3.90298 9.47225 4.77761L10.0001 5.83333" stroke="currentColor" stroke-width="1.25" stroke-linecap="round"/>
</svg>
