<svg viewBox="0 0 20 20" fill="none" xmlns="http://www.w3.org/2000/svg">
<path d="M10.4412 1.66669C13.7687 1.66669 15.4325 1.66669 16.4663 2.643C17.5 3.61931 17.5 5.19065 17.5 8.33335V11.6667C17.5 14.8094 17.5 16.3808 16.4663 17.357C15.4325 18.3334 13.7687 18.3334 10.4412 18.3334H9.55883C6.23126 18.3334 4.56748 18.3334 3.53374 17.357C2.5 16.3808 2.5 14.8094 2.5 11.6667V8.33335C2.5 5.19065 2.5 3.61931 3.53374 2.643C4.56748 1.66669 6.23127 1.66669 9.55883 1.66669H10.4412Z" stroke="currentColor" stroke-width="1.25" stroke-linecap="round"/>
<path d="M6.66675 5.83331H13.3334" stroke="currentColor" stroke-width="1.25" stroke-linecap="round"/>
<path d="M6.66675 10H13.3334" stroke="currentColor" stroke-width="1.25" stroke-linecap="round"/>
<path d="M6.66675 14.1667H10.0001" stroke="currentColor" stroke-width="1.25" stroke-linecap="round"/>
</svg>
